Coordinates
version=1
nRows=8
nColumns=46
inDegrees=yes

Units are S.I. units (second, meters, Newtons, ...)
Angles are in degrees.

endheader
time	pelvis_tilt	pelvis_list	pelvis_rotation	pelvis_tx	pelvis_ty	pelvis_tz	bb_angle	bb_tx	bb_ty	bb_tz	hip_flexion_r	hip_adduction_r	hip_rotation_r	knee_angle_r	knee_angle_r_beta	ankle_angle_r	subtalar_angle_r	mtp_angle_r	crank_angle_r	hip_flexion_l	hip_adduction_l	hip_rotation_l	knee_angle_l	knee_angle_l_beta	ankle_angle_l	subtalar_angle_l	mtp_angle_l	crank_angle_l	lumbar_extension	lumbar_bending	lumbar_rotation	arm_flex_r	arm_add_r	arm_rot_r	elbow_flex_r	pro_sup_r	wrist_flex_r	wrist_dev_r	arm_flex_l	arm_add_l	arm_rot_l	elbow_flex_l	pro_sup_l	wrist_flex_l	wrist_dev_l
      0.00000000	    -33.73048394	     -2.33685596	     -5.71542071	      0.14338973	      1.02553434	     -0.21800805	      0.00000000	      0.50000000	      0.00000000	      0.25000000	     91.51220990	      2.27260397	      1.68070866	     74.67951594	      1.30340344	     14.83440367	     -4.96748951	      0.00000000	      0.00000000	     60.47424399	     -7.10440553	      4.93161597	     70.53141015	      1.23100533	     21.26098821	    -11.78471312	      0.00000000	      0.00000000	    -33.87294242	      0.30575493	      4.79931082	     83.83159094	     -7.00868464	     31.64512687	     42.04163226	     25.64007833	      0.00000000	      0.00000000	     79.36228006	    -10.41034102	     25.84105050	     47.18285723	     26.55673708	      0.00000000	      0.00000000
      0.00500000	    -33.67669771	     -2.28724102	     -5.65571499	      0.14340280	      1.02568009	     -0.21814206	      0.00000000	      0.50000000	      0.00000000	      0.25000000	     91.45498641	      2.21546267	      1.75747890	     74.66329160	      1.30312027	     14.73163182	     -5.08356612	      0.00000000	      0.00000000	     60.41106933	     -6.97367425	      4.91553555	     70.51883969	      1.23078594	     21.12242126	    -12.10484484	      0.00000000	      0.00000000	    -33.93119992	      0.28618749	      4.63093751	     83.88202453	     -6.65270477	     31.01618188	     41.07417464	     29.33003529	      0.00000000	      0.00000000	     79.50714215	    -10.21827215	     25.26837878	     46.10084371	     30.10904858	      0.00000000	      0.00000000
      0.01000000	    -33.67520774	     -2.25344266	     -5.65524331	      0.14357808	      1.02585395	     -0.21814863	      0.00000000	      0.50000000	      0.00000000	      0.25000000	     91.44070655	      2.18560080	      1.73202508	     74.65170812	      1.30291810	     14.66618975	     -5.08115313	      0.00000000	      0.00000000	     60.32816117	     -6.94742521	      4.89113642	     70.38694938	      1.22848402	     21.17499337	    -12.10790505	      0.00000000	      0.00000000	    -33.99726159	      0.22891006	      4.56413039	     83.68050844	     -6.76076277	     30.43970591	     41.82610480	     29.76865597	      0.00000000	      0.00000000	     79.16928788	    -10.27991965	     24.80655503	     46.70208232	     30.52005695	      0.00000000	      0.00000000
      0.01500000	    -33.58516934	     -2.25814366	     -5.54447737	      0.14366449	      1.02597451	     -0.21872483	      0.00000000	      0.50000000	      0.00000000	      0.25000000	     91.33962044	      2.00569680	      1.70378618	     74.67364036	      1.30330089	     14.76864179	     -4.99939091	      0.00000000	      0.00000000	     60.24608161	     -6.77560815	      5.00467904	     70.42565228	      1.22915951	     21.12084618	    -12.16852897	      0.00000000	      0.00000000	    -34.06528272	      0.37740469	      4.57563131	     83.98545065	     -6.61261112	     30.63381354	     40.41454132	     32.48844572	      0.00000000	      0.00000000	     79.57045141	    -10.23108895	     24.96023509	     45.52131777	     33.15125624	      0.00000000	      0.00000000
      0.02000000	    -33.59888130	     -2.20601451	     -5.57258445	      0.14363700	      1.02596983	     -0.21858526	      0.00000000	      0.50000000	      0.00000000	      0.25000000	     91.40804621	      1.98638773	      1.69109681	     74.76131618	      1.30483112	     14.81577615	     -4.92209004	      0.00000000	      0.00000000	     60.24974977	     -6.79045411	      4.94298457	     70.42604641	      1.22916639	     21.16236278	    -12.14416764	      0.00000000	      0.00000000	    -34.02497890	      0.28889589	      4.55314436	     84.09115916	     -7.08855583	     31.90203123	     40.39709029	     33.46957665	      0.00000000	      0.00000000	     79.71312373	    -10.69060365	     26.21001301	     45.39206017	     34.07259121	      0.00000000	      0.00000000
      0.02500000	    -33.64324039	     -2.25983440	     -5.52905928	      0.14362047	      1.02608882	     -0.21873376	      0.00000000	      0.50000000	      0.00000000	      0.25000000	     91.39118663	      1.99850231	      1.74003474	     74.68369891	      1.30347644	     14.75082019	     -5.04546165	      0.00000000	      0.00000000	     60.29670920	     -6.75328205	      5.02600277	     70.38180326	      1.22839420	     21.00543329	    -12.32268104	      0.00000000	      0.00000000	    -34.01233751	      0.36755090	      4.58022848	     83.99143535	     -6.99612030	     31.17795591	     40.25988110	     35.02059513	      0.00000000	      0.00000000	     79.62531388	    -10.50284590	     25.58738326	     45.28303526	     35.57423625	      0.00000000	      0.00000000
      0.03000000	    -33.62520904	     -2.29202032	     -5.55901898	      0.14368378	      1.02616164	     -0.21859057	      0.00000000	      0.50000000	      0.00000000	      0.25000000	     91.35649975	      2.04973759	      1.72376839	     74.67806097	      1.30337804	     14.79452461	     -4.99586161	      0.00000000	      0.00000000	     60.27486754	     -6.83257686	      5.00608844	     70.38787923	      1.22850025	     21.03635026	    -12.25028293	      0.00000000	      0.00000000	    -34.05824493	      0.37535891	      4.61127801	     84.07631278	     -7.31755335	     31.89841857	     40.04917996	     37.44748045	      0.00000000	      0.00000000	     79.68499020	    -10.79370931	     26.02923043	     45.02282672	     37.85571700	      0.00000000	      0.00000000
      0.03500000	    -33.62772381	     -2.28108103	     -5.56458719	      0.14372687	      1.02618196	     -0.21855501	      0.00000000	      0.50000000	      0.00000000	      0.25000000	     91.35494129	      2.06634211	      1.74614699	     74.67902055	      1.30339479	     14.80417632	     -5.02731720	      0.00000000	      0.00000000	     60.26803706	     -6.83795903	      4.98780932	     70.37291107	      1.22823900	     21.03078067	    -12.23685761	      0.00000000	      0.00000000	    -34.04511270	      0.36560157	      4.61158431	     84.01498112	     -6.95464559	     30.84284170	     39.65630768	     38.60590395	      0.00000000	      0.00000000	     79.66067772	    -10.47876096	     25.19345986	     44.63451837	     38.95967894	      0.00000000	      0.00000000
